<svg width="200" height="200" viewBox="0 0 200 200" fill="none" xmlns="http://www.w3.org/2000/svg">
<rect x="2" y="2" width="196" height="196" stroke="#264A9A" stroke-width="4"/>
<path d="M25.3125 180L21.0742 145.605L27.6172 145.605L30.1367 169.004L32.3828 145.605L38.9258 145.605L34.6875 180L25.3125 180ZM40.7813 148.906L40.7813 143.086L47.7734 143.086L47.7734 148.906L40.7813 148.906ZM40.7813 180L40.7813 150.703L47.7734 150.703L47.7734 180L40.7813 180ZM56.3086 180.312C54.9544 180.312 53.8802 180.065 53.0859 179.57C52.2917 179.076 51.6992 178.392 51.3086 177.52C50.918 176.647 50.6576 175.625 50.5273 174.453C50.4102 173.281 50.3516 172.025 50.3516 170.684L50.3516 157.949C50.3516 155.697 50.7487 153.874 51.543 152.48C52.3503 151.087 53.7109 150.391 55.625 150.391C57.0443 150.391 58.1315 150.697 58.8867 151.309C59.6549 151.908 60.2474 152.747 60.6641 153.828L60.6641 145.625L67.7734 145.625L67.7734 180L60.6641 180L60.6641 176.895C60.2734 177.949 59.7526 178.783 59.1016 179.395C58.4635 180.007 57.5326 180.312 56.3086 180.312ZM58.9844 174.844C59.6484 174.844 60.0911 174.577 60.3125 174.043C60.5469 173.509 60.6641 172.552 60.6641 171.172L60.6641 158.848C60.6641 158.158 60.5599 157.48 60.3516 156.816C60.1563 156.139 59.7135 155.801 59.0234 155.801C58.2682 155.801 57.793 156.12 57.5977 156.758C57.4023 157.396 57.3047 158.092 57.3047 158.848L57.3047 171.172C57.3047 173.62 57.8646 174.844 58.9844 174.844ZM70.2734 180L70.2734 178.359C70.2734 176.654 70.5339 175.124 71.0547 173.77C71.5885 172.402 72.2721 171.139 73.1055 169.98C73.9388 168.809 74.8177 167.663 75.7422 166.543C76.6406 165.449 77.4935 164.329 78.3008 163.184C79.1211 162.025 79.7852 160.775 80.293 159.434C80.8138 158.079 81.0742 156.562 81.0742 154.883C81.0742 154.076 80.9505 153.385 80.7031 152.812C80.4688 152.227 79.974 151.934 79.2188 151.934C78.0729 151.934 77.5 152.956 77.5 155L77.5 159.199L70.2734 159.199C70.2604 158.9 70.2409 158.561 70.2148 158.184C70.2018 157.806 70.1953 157.441 70.1953 157.09C70.1953 154.616 70.4557 152.52 70.9766 150.801C71.4974 149.069 72.4154 147.754 73.7305 146.855C75.0586 145.944 76.9206 145.488 79.3164 145.488C82.168 145.488 84.3815 146.289 85.957 147.891C87.5456 149.492 88.3398 151.777 88.3398 154.746C88.3398 156.764 88.0794 158.535 87.5586 160.059C87.0378 161.569 86.3477 162.949 85.4883 164.199C84.6289 165.436 83.6849 166.673 82.6563 167.91C81.9271 168.783 81.2174 169.674 80.5273 170.586C79.8503 171.497 79.2513 172.474 78.7305 173.516L88.1055 173.516L88.1055 180L70.2734 180ZM90.3516 180L90.3516 145.625L97.4219 145.625L100.586 162.09L100.586 145.625L107.227 145.625L107.227 180L100.508 180L97.0703 162.812L97.0703 180L90.3516 180ZM118.672 180.312C112.839 180.312 109.922 177.285 109.922 171.23L109.922 159.473C109.922 156.712 110.697 154.512 112.246 152.871C113.796 151.217 115.938 150.391 118.672 150.391C121.419 150.391 123.568 151.217 125.117 152.871C126.667 154.512 127.441 156.712 127.441 159.473L127.441 171.23C127.441 177.285 124.518 180.312 118.672 180.312ZM118.672 174.922C119.258 174.922 119.674 174.714 119.922 174.297C120.182 173.867 120.313 173.327 120.313 172.676L120.313 158.359C120.313 156.654 119.766 155.801 118.672 155.801C117.578 155.801 117.031 156.654 117.031 158.359L117.031 172.676C117.031 173.327 117.155 173.867 117.402 174.297C117.663 174.714 118.086 174.922 118.672 174.922ZM136.055 180.312C134.167 180.312 132.891 179.915 132.227 179.121C131.576 178.314 131.25 177.083 131.25 175.43L131.25 157.168L129.277 157.168L129.277 151.836L131.25 151.836L131.25 145.625L138.047 145.625L138.047 151.836L140.02 151.836L140.02 157.168L138.047 157.168L138.047 173.789C138.047 174.271 138.125 174.609 138.281 174.805C138.438 175 138.737 175.098 139.18 175.098C139.492 175.098 139.772 175.072 140.02 175.02L140.02 179.785C139.863 179.837 139.375 179.935 138.555 180.078C137.734 180.234 136.901 180.312 136.055 180.312ZM150.469 180.312C148.385 180.312 146.725 179.922 145.488 179.141C144.251 178.359 143.366 177.233 142.832 175.762C142.298 174.29 142.031 172.52 142.031 170.449L142.031 158.672C142.031 155.951 142.813 153.893 144.375 152.5C145.938 151.094 148.086 150.391 150.82 150.391C156.445 150.391 159.258 153.151 159.258 158.672L159.258 160.801C159.258 163.379 159.232 165.111 159.18 165.996L149.023 165.996L149.023 171.66C149.023 172.181 149.056 172.695 149.121 173.203C149.186 173.698 149.329 174.108 149.551 174.434C149.785 174.759 150.156 174.922 150.664 174.922C151.393 174.922 151.849 174.609 152.031 173.984C152.214 173.346 152.305 172.52 152.305 171.504L152.305 168.691L159.258 168.691L159.258 170.352C159.258 172.539 158.984 174.375 158.438 175.859C157.904 177.331 156.992 178.444 155.703 179.199C154.427 179.941 152.682 180.312 150.469 180.312ZM148.984 162.52L152.305 162.52L152.305 158.574C152.305 157.52 152.174 156.764 151.914 156.309C151.654 155.84 151.263 155.605 150.742 155.605C150.182 155.605 149.746 155.827 149.434 156.27C149.134 156.712 148.984 157.48 148.984 158.574L148.984 162.52ZM169.824 180.312C164.043 180.312 161.152 177.383 161.152 171.523L161.152 169.199L168.184 169.199L168.184 172.637C168.184 173.301 168.314 173.822 168.574 174.199C168.835 174.577 169.251 174.766 169.824 174.766C170.84 174.766 171.348 174.004 171.348 172.48C171.348 171.204 171.081 170.254 170.547 169.629C170.013 168.991 169.362 168.379 168.594 167.793L164.863 164.922C163.691 164.01 162.799 163.047 162.188 162.031C161.576 161.016 161.27 159.603 161.27 157.793C161.27 156.113 161.667 154.727 162.461 153.633C163.268 152.539 164.329 151.725 165.645 151.191C166.973 150.658 168.405 150.391 169.941 150.391C175.618 150.391 178.457 153.223 178.457 158.887L178.457 159.434L171.23 159.434L171.23 158.32C171.23 157.734 171.126 157.168 170.918 156.621C170.723 156.074 170.332 155.801 169.746 155.801C168.757 155.801 168.262 156.322 168.262 157.363C168.262 158.418 168.678 159.245 169.512 159.844L173.848 163.008C175.202 163.984 176.335 165.143 177.246 166.484C178.171 167.826 178.633 169.609 178.633 171.836C178.633 174.596 177.845 176.699 176.27 178.145C174.707 179.59 172.559 180.312 169.824 180.312Z" fill="#264A9A"/>
<path d="M81.1315 120.139L74.6765 75.5911L124.825 75.3813L103.256 120.046L81.1315 120.139Z" fill="#264A9A" stroke="#264A9A"/>
<path d="M89.6053 30.2113L96.8008 75.4986L67.3018 75.6219L59 30.3393L89.6053 30.2113Z" fill="#264A9A" stroke="#264A9A"/>
<path d="M119.3 30.83L96.8039 76.2414L119.489 76.1465L140.126 30.7429L119.3 30.83Z" fill="#264A9A" stroke="#264A9A"/>
</svg>
